#N canvas 430 27 1559 912 12;
#N canvas 0 50 450 250 (subpatch) 0;
#X array array1 87529 float 2;
#X coords 0 1 87529 -1 200 140 1;
#X restore 313 434 graph;
#X obj 25 16 loadbang;
#X msg 25 44 1;
#X msg 25 114 \; pd dsp \$1;
#X obj 206 350 soundfiler;
#X floatatom 209 398 9 0 0 0 - - - 0;
#X obj 209 624 line~;
#X obj 254 434 / 44.1;
#X floatatom 254 459 5 0 0 0 - - - 0;
#X obj 209 534 pack 0 0;
#X obj 254 492 i;
#X msg 209 573 1 \, \$1 \$2;
#X obj 202 768 dac~;
#X obj 209 658 tabread4~ array1;
#X msg 206 297 read -resize game-assets/pure-data-patches/Screams.wav array1;
#X obj 649 348 soundfiler;
#X floatatom 652 396 9 0 0 0 - - - 0;
#X obj 652 622 line~;
#X obj 697 432 / 44.1;
#X floatatom 697 457 5 0 0 0 - - - 0;
#X obj 652 532 pack 0 0;
#X obj 697 490 i;
#X msg 652 571 1 \, \$1 \$2;
#X obj 645 766 dac~;
#N canvas 0 50 450 250 (subpatch) 0;
#X array array2 64246 float 2;
#X coords 0 1 64246 -1 200 140 1;
#X restore 763 441 graph;
#X msg 648 307 read -resize game-assets/pure-data-patches/Roar.wav array2;
#X obj 652 656 tabread4~ array2;
#X obj 495 229 bng 19 250 50 0 empty empty empty 0 -10 0 12 #fcfcfc #000000 #000000;
#X obj 645 233 bng 19 250 50 0 empty empty empty 0 -10 0 12 #fcfcfc #000000 #000000;
#X obj 151 55 tgl 19 0 empty empty empty 0 -10 0 12 #fcfcfc #000000 #000000 0 1;
#X floatatom 378 148 3 0 0 0 - - - 0;
#X obj 276 132 bng 19 250 50 0 empty empty empty 0 -10 0 12 #fcfcfc #000000 #000000;
#X obj 151 89 metro 2000;
#N canvas 0 50 450 250 (subpatch) 0;
#X array array3 88200 float 2;
#X coords 0 1 88200 -1 200 140 1;
#X restore 1205 238 graph;
#N canvas 0 50 450 250 (subpatch) 0;
#X array array4 69856 float 2;
#X coords 0 1 69856 -1 200 140 1;
#X restore 1616 233 graph;
#X obj 1085 148 soundfiler;
#X floatatom 1088 196 9 0 0 0 - - - 0;
#X obj 1088 422 line~;
#X obj 1133 232 / 44.1;
#X floatatom 1133 257 5 0 0 0 - - - 0;
#X obj 1088 332 pack 0 0;
#X obj 1133 290 i;
#X msg 1088 371 1 \, \$1 \$2;
#X obj 1081 566 dac~;
#X obj 1084 71 bng 19 250 50 0 empty empty empty 0 -10 0 12 #fcfcfc #000000 #000000;
#X obj 1088 456 tabread4~ array3;
#X msg 1084 102 read -resize game-assets/pure-data-patches/electric.wav array3;
#X obj 1494 142 soundfiler;
#X floatatom 1497 190 9 0 0 0 - - - 0;
#X obj 1497 416 line~;
#X obj 1542 226 / 44.1;
#X floatatom 1542 251 5 0 0 0 - - - 0;
#X obj 1497 326 pack 0 0;
#X obj 1542 284 i;
#X msg 1497 365 1 \, \$1 \$2;
#X obj 1489 594 dac~;
#X obj 1493 65 bng 19 250 50 0 empty empty empty 0 -10 0 12 #fcfcfc #000000 #000000;
#X obj 1497 450 tabread4~ array4;
#X msg 1493 101 read -resize game-assets/pure-data-patches/explosion.wav array4;
#X obj 1497 496 lop~ 2500;
#X obj 1493 16 receive explosion;
#X obj 1084 26 receive powerup;
#X obj 377 98 random 6;
#X obj 590 182 sel 0 1 2 3 4 5;
#X obj 814 65 bng 19 250 50 0 empty empty empty 0 -10 0 12 #fcfcfc #000000 #000000;
#X obj 814 98 tgl 19 0 empty empty empty 0 -10 0 12 #fcfcfc #000000 #000000 0 1;
#X obj 814 133 sel 0 1;
#X msg 753 183 0;
#X obj 1497 534 *~ 1.3;
#X obj 813 26 receive soundoperator;
#X obj 209 708 *~ 1.1;
#X msg 798 181 1.1;
#X obj 652 706 *~ 0.9;
#X msg 839 180 0.9;
#X obj 1088 506 *~ 1.4;
#X obj 647 62 bng 19 250 50 0 empty empty empty 0 -10 0 12 #fcfcfc #000000 #000000;
#X obj 646 22 receive gameover;
#X msg 647 105 0;
#X connect 1 0 2 0;
#X connect 2 0 3 0;
#X connect 2 0 29 0;
#X connect 2 0 65 0;
#X connect 4 0 5 0;
#X connect 5 0 7 0;
#X connect 5 0 9 0;
#X connect 6 0 13 0;
#X connect 7 0 8 0;
#X connect 8 0 10 0;
#X connect 9 0 11 0;
#X connect 10 0 9 1;
#X connect 11 0 6 0;
#X connect 13 0 70 0;
#X connect 14 0 4 0;
#X connect 15 0 16 0;
#X connect 16 0 18 0;
#X connect 16 0 20 0;
#X connect 17 0 26 0;
#X connect 18 0 19 0;
#X connect 19 0 21 0;
#X connect 20 0 22 0;
#X connect 21 0 20 1;
#X connect 22 0 17 0;
#X connect 25 0 15 0;
#X connect 26 0 72 0;
#X connect 27 0 14 0;
#X connect 28 0 25 0;
#X connect 29 0 32 0;
#X connect 30 0 63 0;
#X connect 31 0 62 0;
#X connect 32 0 31 0;
#X connect 35 0 36 0;
#X connect 36 0 38 0;
#X connect 36 0 40 0;
#X connect 37 0 45 0;
#X connect 38 0 39 0;
#X connect 39 0 41 0;
#X connect 40 0 42 0;
#X connect 41 0 40 1;
#X connect 42 0 37 0;
#X connect 44 0 46 0;
#X connect 45 0 74 0;
#X connect 46 0 35 0;
#X connect 47 0 48 0;
#X connect 48 0 50 0;
#X connect 48 0 52 0;
#X connect 49 0 57 0;
#X connect 50 0 51 0;
#X connect 51 0 53 0;
#X connect 52 0 54 0;
#X connect 53 0 52 1;
#X connect 54 0 49 0;
#X connect 56 0 58 0;
#X connect 57 0 59 0;
#X connect 58 0 47 0;
#X connect 59 0 68 0;
#X connect 60 0 56 0;
#X connect 61 0 44 0;
#X connect 62 0 30 0;
#X connect 63 0 27 0;
#X connect 63 4 28 0;
#X connect 64 0 65 0;
#X connect 65 0 66 0;
#X connect 66 0 67 0;
#X connect 66 1 71 0;
#X connect 66 1 73 0;
#X connect 67 0 70 1;
#X connect 67 0 72 1;
#X connect 68 0 55 0;
#X connect 68 0 55 1;
#X connect 69 0 64 0;
#X connect 70 0 12 0;
#X connect 70 0 12 1;
#X connect 71 0 70 1;
#X connect 72 0 23 0;
#X connect 72 0 23 1;
#X connect 73 0 72 1;
#X connect 74 0 43 0;
#X connect 74 0 43 1;
#X connect 75 0 77 0;
#X connect 76 0 75 0;
#X connect 77 0 65 0;
